<svg width="35" height="51" viewBox="0 0 35 51" fill="none" xmlns="http://www.w3.org/2000/svg">
<path d="M5.90806 1.38879L8.59809 0.528775C11.1206 -0.276234 13.8157 1.02628 14.8957 3.57131L17.0457 8.64137C17.9807 10.8489 17.4607 13.4464 15.7607 15.0614L11.0231 19.5565C11.3156 22.2465 12.2206 24.8941 13.7357 27.4991C15.1743 30.0195 17.1041 32.2255 19.4107 33.9867L25.1008 32.0866C27.2558 31.3691 29.6058 32.1966 30.9259 34.1392L34.0084 38.6642C35.5459 40.9243 35.2684 44.0393 33.3609 45.9543L31.3184 48.0068C29.2833 50.0494 26.3758 50.7919 23.6883 49.9519C17.3382 47.9718 11.5056 42.0943 6.18056 32.3191C0.847999 22.529 -1.03452 14.2189 0.535496 7.39886C1.1955 4.52882 3.23803 2.2413 5.90806 1.38879Z" fill="#EF790C"/>
</svg>
