<svg width="51" height="51" viewBox="0 0 51 51" fill="none" xmlns="http://www.w3.org/2000/svg">
<path d="M32.4022 22.1761C35.1649 22.1761 37.7616 23.2493 39.7128 25.2005L41.6259 27.1136C45.5331 25.3812 48.5838 21.9085 49.5965 17.6751C50.1556 15.3392 50.118 13.0775 49.6175 10.9955C49.3623 9.93298 48.013 9.57849 47.2406 10.3506L40.5121 17.0791H33.1293V9.78357L39.8578 3.05507C40.6304 2.28242 40.2753 0.933008 39.2129 0.678126C37.1308 0.17764 34.8691 0.140042 32.5332 0.699103C27.1328 1.99109 22.9248 6.57994 22.0645 12.0663C21.9238 12.8793 21.8945 13.6703 21.9042 14.4515L29.9882 22.5433C30.7812 22.2738 31.5917 22.1761 32.4022 22.1761ZM37.4999 27.4984C35.2382 25.2366 31.8778 24.806 29.161 26.1409L18.6621 15.7211V9.6654L6.24998 0.291409L0 6.4535L9.37497 18.8656L15.4335 18.8663L25.8534 29.2765C24.5185 31.9932 24.95 35.3536 27.2118 37.6153L38.6376 49.0508C40.0653 50.4668 42.369 50.4668 43.785 49.0506L48.9364 43.8993C50.3524 42.4833 50.3524 40.1806 48.9362 38.7519L37.4999 27.4984ZM22.2558 30.2718L16.4746 24.5003L1.93359 39.0413C-0.6416 41.6165 -0.6416 45.7874 1.93359 48.3626C3.21874 49.6467 4.90331 50.2913 6.59178 50.2913C8.28025 50.2913 9.96481 49.6475 11.2519 48.3596L22.8827 36.7288C22.0214 34.6956 21.7382 32.4593 22.2558 30.2718ZM6.24998 46.385C4.95604 46.385 3.90624 45.3352 3.90624 44.0413C3.90624 42.7464 4.95604 41.6975 6.24998 41.6975C7.54392 41.6975 8.59372 42.7425 8.59372 44.0413C8.59372 45.3401 7.54392 46.385 6.24998 46.385Z" fill="#EF790C"/>
</svg>
