<svg width="61" height="36" viewBox="0 0 61 36" fill="none" xmlns="http://www.w3.org/2000/svg">
<path d="M30.725 0.961761C19.7562 0.961761 11.2116 7.49748 0.724976 18.1046C9.75176 27.1716 17.3321 35.2475 30.725 35.2475C44.1044 35.2475 53.9482 25.0153 60.725 18.2921C53.7875 10.4171 43.9571 0.961761 30.725 0.961761ZM30.725 30.3323C24.1089 30.3323 18.725 24.8412 18.725 18.1046C18.725 11.3546 24.1089 5.87694 30.725 5.87694C37.341 5.87694 42.725 11.368 42.725 18.1046C42.725 24.8546 37.341 30.3323 30.725 30.3323Z" fill="#EF790C"/>
<path d="M30.7249 13.8189C30.7249 12.7609 31.1133 11.7966 31.7428 11.0466C31.408 10.993 31.0731 10.9662 30.7249 10.9662C26.8678 10.9662 23.7205 14.1671 23.7205 18.1046C23.7205 22.0421 26.8678 25.243 30.7249 25.243C34.5821 25.243 37.7294 22.0421 37.7294 18.1046C37.7294 17.7966 37.7026 17.4885 37.6758 17.1805C36.9392 17.7564 36.0285 18.1046 35.024 18.1046C32.6401 18.1046 30.7249 16.1894 30.7249 13.8189Z" fill="#EF790C"/>
</svg>
