<svg width="25" height="26" viewBox="0 0 25 26" fill="none" xmlns="http://www.w3.org/2000/svg">
<path fill-rule="evenodd" clip-rule="evenodd" d="M21.9456 0.859375C23.6314 0.859375 25 2.22803 25 3.91377V22.805C25 24.4907 23.6313 25.8594 21.9456 25.8594H16.747V16.4397H19.9989L20.6177 12.4055H16.747V9.78745C16.747 8.68379 17.2876 7.60796 19.0214 7.60796H20.7812V4.17339C20.7812 4.17339 19.1841 3.90083 17.6571 3.90083C14.4692 3.90083 12.3856 5.83291 12.3856 9.33071V12.4055H8.84204V16.4397H12.3856V25.8594H3.05439C1.36865 25.8594 0 24.4907 0 22.805V3.91377C0 2.22803 1.3686 0.859375 3.05439 0.859375L21.9456 0.859375Z" fill="#606060"/>
</svg>
