<svg width="46" height="51" viewBox="0 0 46 51" fill="none" xmlns="http://www.w3.org/2000/svg">
<path d="M5.66507 30.6655L33.1406 30.6685C33.4007 31.0976 33.719 31.4959 34.0928 31.8507L35.8896 33.5563C35.6756 34.388 35.3268 35.2219 34.8379 36.063C34.3436 36.9129 33.7725 37.6558 33.1216 38.2972L31.1355 37.635C28.7993 36.8559 26.2626 37.7486 24.8659 39.8004L23.0618 42.4509C21.4898 44.7608 21.7696 47.9164 23.7362 49.8907L24.305 50.4608C22.951 50.6019 21.527 50.6719 20.0338 50.6719C12.8088 50.6719 7.21073 49.0301 3.30285 45.6705C1.23093 43.8892 0.0390625 41.2927 0.0390625 38.5602V36.2915C0.0390625 33.1845 2.55792 30.6655 5.66507 30.6655ZM35.0627 26.2775L36.3212 23.3097C36.9115 21.918 38.3253 21.1608 39.7118 21.4496L40.0081 21.5276L41.5841 22.0312C43.1467 22.5306 44.3434 23.8693 44.7299 25.5501C45.6484 29.5451 44.5464 34.4087 41.4243 40.1412C38.3065 45.8655 34.8897 49.3074 31.173 50.4666C29.73 50.9167 28.18 50.5896 27.0138 49.6107L26.7057 49.3276L25.5087 48.1259C24.4716 47.0847 24.2578 45.4372 24.9534 44.1485L25.1299 43.8579L26.934 41.2074C27.6439 40.1645 28.8581 39.6712 30.028 39.9204L30.3456 40.007L33.676 41.1177C35.0052 40.1117 36.1131 38.8458 37.0006 37.3197C37.7609 36.0117 38.2585 34.686 38.4928 33.3425L38.5881 32.6691L35.8151 30.0372C34.9017 29.1703 34.5699 27.82 34.9432 26.6051L35.0627 26.2775ZM20.0338 0.671875C26.9385 0.671875 32.536 6.26933 32.536 13.1741C32.536 20.0789 26.9385 25.6764 20.0338 25.6764C13.129 25.6764 7.53156 20.0789 7.53156 13.1741C7.53156 6.26933 13.129 0.671875 20.0338 0.671875Z" fill="#EF790C"/>
</svg>
