<svg width="26" height="26" viewBox="0 0 26 26" fill="none" xmlns="http://www.w3.org/2000/svg">
<path fill-rule="evenodd" clip-rule="evenodd" d="M22.2725 0.859375C23.9583 0.859375 25.3269 2.22803 25.3269 3.91377V22.805C25.3269 24.4907 23.9583 25.8594 22.2725 25.8594H3.3813C1.69556 25.8594 0.326904 24.4907 0.326904 22.805V3.91377C0.326904 2.22803 1.69551 0.859375 3.3813 0.859375L22.2725 0.859375ZM12.8269 4.81445C10.5063 4.81445 10.2152 4.82427 9.30386 4.86587C8.39434 4.90737 7.77319 5.05181 7.22964 5.26309C6.66772 5.48145 6.19121 5.77363 5.71616 6.24863C5.24111 6.72368 4.94893 7.20024 4.73057 7.76211C4.51934 8.30566 4.3749 8.92681 4.33335 9.83633C4.2918 10.7477 4.28198 11.0387 4.28198 13.3594C4.28198 15.68 4.2918 15.971 4.33335 16.8824C4.3749 17.7919 4.51934 18.4131 4.73057 18.9566C4.94893 19.5185 5.24111 19.9951 5.71616 20.4701C6.19121 20.9452 6.66772 21.2374 7.22964 21.4557C7.77319 21.6669 8.39434 21.8114 9.30386 21.8529C10.2152 21.8945 10.5063 21.9043 12.8269 21.9043C15.1476 21.9043 15.4386 21.8945 16.35 21.8529C17.2595 21.8114 17.8806 21.6669 18.4242 21.4557C18.986 21.2374 19.4626 20.9452 19.9376 20.4701C20.4127 19.9951 20.7049 19.5185 20.9232 18.9566C21.1345 18.4131 21.2789 17.7919 21.3204 16.8824C21.362 15.971 21.3718 15.68 21.3718 13.3594C21.3718 11.0387 21.362 10.7477 21.3204 9.83633C21.2789 8.92681 21.1345 8.30566 20.9232 7.76211C20.7049 7.20024 20.4127 6.72368 19.9376 6.24863C19.4626 5.77363 18.986 5.48145 18.4242 5.26309C17.8806 5.05181 17.2595 4.90737 16.35 4.86587C15.4386 4.82427 15.1476 4.81445 12.8269 4.81445ZM12.8269 6.3541C15.1085 6.3541 15.3788 6.36279 16.2798 6.40391C17.1129 6.44194 17.5653 6.58115 17.8665 6.6981C18.2653 6.85313 18.55 7.03833 18.849 7.3373C19.148 7.63633 19.3332 7.921 19.4882 8.31982C19.6052 8.62095 19.7444 9.07339 19.7824 9.90649C19.8235 10.8075 19.8322 11.0778 19.8322 13.3594C19.8322 15.641 19.8235 15.9112 19.7824 16.8123C19.7444 17.6454 19.6052 18.0978 19.4882 18.3989C19.3332 18.7978 19.148 19.0824 18.849 19.3814C18.55 19.6805 18.2653 19.8656 17.8665 20.0207C17.5653 20.1376 17.1129 20.2769 16.2798 20.3148C15.3789 20.356 15.1086 20.3647 12.8269 20.3647C10.5452 20.3647 10.275 20.356 9.37402 20.3148C8.54092 20.2769 8.08848 20.1376 7.78735 20.0207C7.38848 19.8656 7.10386 19.6805 6.80483 19.3814C6.50581 19.0824 6.32061 18.7978 6.16563 18.3989C6.04863 18.0978 5.90942 17.6454 5.87139 16.8123C5.83027 15.9112 5.82158 15.641 5.82158 13.3594C5.82158 11.0778 5.83027 10.8075 5.87139 9.90649C5.90942 9.07339 6.04863 8.62095 6.16563 8.31982C6.32061 7.921 6.50581 7.63633 6.80483 7.3373C7.10386 7.03833 7.38848 6.85313 7.78735 6.6981C8.08848 6.58115 8.54092 6.44194 9.37402 6.40391C10.275 6.36279 10.5453 6.3541 12.8269 6.3541ZM12.8269 8.97144C10.4035 8.97144 8.43896 10.936 8.43896 13.3594C8.43896 15.7828 10.4035 17.7473 12.8269 17.7473C15.2503 17.7473 17.2148 15.7828 17.2148 13.3594C17.2148 10.936 15.2503 8.97144 12.8269 8.97144ZM12.8269 16.2077C11.2538 16.2077 9.97861 14.9325 9.97861 13.3594C9.97861 11.7863 11.2538 10.5111 12.8269 10.5111C14.4 10.5111 15.6752 11.7863 15.6752 13.3594C15.6752 14.9325 14.4 16.2077 12.8269 16.2077ZM18.4136 8.7981C18.4136 9.3644 17.9545 9.82344 17.3882 9.82344C16.8219 9.82344 16.3628 9.3644 16.3628 8.7981C16.3628 8.23179 16.8219 7.77271 17.3882 7.77271C17.9545 7.77271 18.4136 8.23179 18.4136 8.7981Z" fill="#606060"/>
</svg>
