<svg width="138" height="41" viewBox="0 0 138 41" fill="none" xmlns="http://www.w3.org/2000/svg">
<path d="M72.0611 6.91028C75.6071 6.91028 78.1125 9.51028 78.1125 12.8303C78.1125 14.2303 77.6175 15.4903 76.8295 16.5003L77.6175 17.2303C77.9508 17.5103 77.9812 17.8503 77.6882 18.1903L77.3851 18.5203C77.0921 18.8303 76.7587 18.8603 76.4759 18.5903L75.6374 17.7603C74.6473 18.4903 73.4249 18.9003 72.0611 18.9003C68.5151 18.9003 66.0097 16.2203 66.0097 12.8403C66.0097 9.51028 68.5353 6.91028 72.0611 6.91028ZM72.0611 16.9603C72.7885 16.9603 73.5462 16.7503 74.1018 16.3403L73.2936 15.5703C72.9804 15.2903 72.9501 14.9503 73.2431 14.6203L73.5361 14.3103C73.829 13.9803 74.1624 13.9503 74.4453 14.2303L75.2737 15.0603C75.6879 14.4203 75.9202 13.6403 75.9202 12.8203C75.9202 10.5303 74.2533 8.82028 72.0611 8.82028C69.8486 8.82028 68.2019 10.5303 68.2019 12.8203C68.2019 15.1703 69.8486 16.9603 72.0611 16.9603Z" fill="#F27321"/>
<path d="M79.6885 11.0602C79.6885 10.6202 79.9309 10.3702 80.3856 10.3702H81.0927C81.5574 10.3702 81.7898 10.6102 81.7898 11.0602V15.3002C81.7898 16.3102 82.0525 17.0002 83.093 17.0002C84.6084 17.0002 85.4469 15.6802 85.4469 14.1902V11.0602C85.4469 10.6202 85.6793 10.3702 86.144 10.3702H86.8511C87.2957 10.3702 87.5482 10.6102 87.5482 11.0602V18.0102C87.5482 18.4702 87.3058 18.7002 86.8511 18.7002H86.2046C85.7601 18.7002 85.5277 18.4702 85.5277 18.0102V17.5202C85.5277 17.3202 85.558 17.1402 85.558 17.1402H85.5277C85.1337 17.9902 84.0427 18.8902 82.6081 18.8902C80.8099 18.8902 79.6885 17.9902 79.6885 15.7202V11.0602Z" fill="#F27321"/>
<path d="M89.599 8.28022V7.79022C89.599 7.35022 89.8314 7.10022 90.2759 7.10022H91.0032C91.4478 7.10022 91.7003 7.34022 91.7003 7.79022V8.28022C91.7003 8.72022 91.4579 8.95022 91.0032 8.95022H90.2759C89.8314 8.95022 89.599 8.72022 89.599 8.28022ZM89.599 11.0602C89.599 10.6202 89.8314 10.3702 90.2759 10.3702H91.0032C91.4478 10.3702 91.6801 10.6102 91.6801 11.0602V18.0102C91.6801 18.4702 91.4478 18.7002 91.0032 18.7002H90.2759C89.8314 18.7002 89.599 18.4702 89.599 18.0102V11.0602Z" fill="#F27321"/>
<path d="M97.8022 10.1703C99.156 10.1703 100.065 10.6603 100.56 11.0003C100.904 11.2303 100.924 11.5703 100.692 11.9303L100.479 12.2603C100.237 12.6403 99.9541 12.6403 99.5601 12.4403C99.2166 12.2103 98.6508 11.9303 97.9235 11.9303C96.3778 11.9303 95.3675 13.0903 95.3675 14.5103C95.3675 15.9103 96.3778 17.1203 97.9942 17.1203C98.8226 17.1203 99.4793 16.7603 99.8733 16.4803C100.287 16.2503 100.601 16.3003 100.813 16.6903L100.974 17.0003C101.176 17.3603 101.126 17.6903 100.793 17.9103C100.277 18.2903 99.257 18.8703 97.8123 18.8703C95.0241 18.8703 93.246 16.9303 93.246 14.5103C93.2258 12.1703 95.014 10.1703 97.8022 10.1703Z" fill="#F27321"/>
<path d="M102.5 7.79022C102.5 7.35022 102.742 7.10022 103.197 7.10022H103.904C104.369 7.10022 104.601 7.34022 104.601 7.79022V13.3102H105.642L107.389 10.8302C107.592 10.5002 107.834 10.3702 108.218 10.3702H109.006C109.572 10.3702 109.743 10.7502 109.43 11.1902L107.339 14.1002V14.1302L109.814 17.8802C110.097 18.3502 109.915 18.7002 109.349 18.7002H108.46C108.076 18.7002 107.834 18.5502 107.652 18.2302L105.692 15.0602H104.601V18.0102C104.601 18.4702 104.369 18.7002 103.904 18.7002H103.197C102.752 18.7002 102.5 18.4702 102.5 18.0102V7.79022Z" fill="#F27321"/>
<path d="M66.2421 24.8002C66.2421 24.3602 66.4744 24.1102 66.9189 24.1102H70.4144C72.5258 24.1102 74.0412 25.1902 74.0412 27.1002C74.0412 28.1802 73.5159 29.1102 72.6268 29.5802V29.6102C73.8998 29.9902 74.5059 31.1602 74.5059 32.3402C74.5059 34.6602 72.647 35.7002 70.4649 35.7002H66.9189C66.4744 35.7002 66.2421 35.4702 66.2421 35.0102V24.8002ZM70.4245 28.8502C71.3438 28.8502 71.859 28.2002 71.859 27.3602C71.859 26.5302 71.364 25.9202 70.374 25.9202H68.3434V28.8402H70.4245V28.8502ZM70.6265 33.8902C71.7176 33.8902 72.3238 33.1902 72.3238 32.2102C72.3238 31.2502 71.6974 30.5502 70.6265 30.5502H68.3535V33.9002H70.6265V33.8902Z" fill="#F27321"/>
<path d="M76.1526 28.0702C76.1526 27.6302 76.3849 27.3802 76.8295 27.3802H77.476C77.9205 27.3802 78.1731 27.6202 78.1731 28.0702V28.8502C78.1731 29.1602 78.1226 29.4202 78.1226 29.4202H78.1529C78.4863 28.4202 79.4056 27.3102 80.5977 27.3102C81.0624 27.3102 81.224 27.5402 81.224 28.0002V28.6402C81.224 29.0802 80.9614 29.3302 80.5169 29.3302C78.9813 29.3302 78.2438 30.8302 78.2438 32.3502V35.0202C78.2438 35.4802 78.0114 35.7102 77.5669 35.7102H76.8396C76.395 35.7102 76.1627 35.4802 76.1627 35.0202V28.0702H76.1526Z" fill="#F27321"/>
<path d="M82.3353 25.2902V24.8002C82.3353 24.3602 82.5677 24.1102 83.0122 24.1102H83.7396C84.1841 24.1102 84.4366 24.3502 84.4366 24.8002V25.2902C84.4366 25.7302 84.1942 25.9602 83.7396 25.9602H83.0122C82.5677 25.9602 82.3353 25.7302 82.3353 25.2902ZM82.3353 28.0702C82.3353 27.6302 82.5677 27.3802 83.0122 27.3802H83.7396C84.1841 27.3802 84.4164 27.6202 84.4164 28.0702V35.0202C84.4164 35.4802 84.1841 35.7102 83.7396 35.7102H83.0122C82.5677 35.7102 82.3353 35.4802 82.3353 35.0202V28.0702Z" fill="#F27321"/>
<path d="M90.5284 27.1902C91.8822 27.1902 92.7914 27.6802 93.2864 28.0202C93.6299 28.2502 93.6501 28.5902 93.4177 28.9502L93.2056 29.2802C92.953 29.6602 92.6803 29.6602 92.2863 29.4602C91.9428 29.2302 91.377 28.9502 90.6497 28.9502C89.104 28.9502 88.0937 30.1102 88.0937 31.5302C88.0937 32.9302 89.104 34.1402 90.7204 34.1402C91.5488 34.1402 92.2054 33.7802 92.5994 33.5002C93.0136 33.2702 93.3268 33.3202 93.539 33.7102L93.7006 34.0202C93.9027 34.3802 93.8522 34.7102 93.5188 34.9302C93.0035 35.3102 91.9832 35.8902 90.5385 35.8902C87.7503 35.8902 85.9722 33.9502 85.9722 31.5302C85.9621 29.1802 87.7401 27.1902 90.5284 27.1902Z" fill="#F27321"/>
<path d="M99.2166 27.1902C101.772 27.1902 103.854 29.0002 103.854 31.5502C103.854 34.1102 101.772 35.9102 99.2166 35.9102C96.6606 35.9102 94.5997 34.1102 94.5997 31.5502C94.5997 29.0002 96.6606 27.1902 99.2166 27.1902ZM99.2166 34.1402C100.58 34.1402 101.722 33.1002 101.722 31.5402C101.722 30.0102 100.58 28.9402 99.2166 28.9402C97.8527 28.9402 96.7314 30.0002 96.7314 31.5402C96.7314 33.0902 97.8527 34.1402 99.2166 34.1402Z" fill="#F27321"/>
<path d="M105.369 24.8002C105.369 24.3602 105.601 24.1102 106.046 24.1102H106.773C107.218 24.1102 107.45 24.3502 107.45 24.8002V32.9402C107.45 33.7602 107.794 33.9002 108.107 33.9402C108.4 33.9702 108.622 34.1502 108.622 34.5302V35.0902C108.622 35.5102 108.42 35.7902 107.925 35.7902C106.804 35.7902 105.369 35.5002 105.369 33.1102V24.8002Z" fill="#F27321"/>
<path d="M114.259 30.5603H114.603V30.3603C114.603 29.2703 113.896 28.8903 113.037 28.8903C112.33 28.8903 111.683 29.1503 111.289 29.3603C110.875 29.5403 110.562 29.4703 110.37 29.0803L110.208 28.7703C110.006 28.3903 110.077 28.0703 110.471 27.8603C111.016 27.5803 111.976 27.1703 113.229 27.1703C115.401 27.1703 116.704 28.3803 116.704 30.4803V35.0203C116.704 35.4803 116.472 35.7103 116.007 35.7103H115.451C115.007 35.7103 114.774 35.4803 114.774 35.0203V34.6903C114.774 34.4603 114.805 34.3303 114.805 34.3303H114.774C114.774 34.3303 113.986 35.9003 112.138 35.9003C110.602 35.9003 109.349 34.9203 109.349 33.4003C109.339 30.9703 112.37 30.5603 114.259 30.5603ZM112.683 34.3203C113.855 34.3203 114.613 33.1403 114.613 32.1303V31.8203H114.269C113.219 31.8203 111.42 31.9803 111.42 33.2203C111.42 33.7803 111.845 34.3203 112.683 34.3203Z" fill="#F27321"/>
<path d="M120.21 37.0602C120.604 37.2102 121.129 37.3702 121.907 37.3702C123.19 37.3702 124.281 36.8302 124.281 35.3502V34.7302C124.281 34.5302 124.311 34.3102 124.311 34.3102H124.281C123.816 35.0902 123.089 35.5502 121.967 35.5502C119.512 35.5502 118.159 33.6202 118.159 31.3202C118.159 29.0502 119.442 27.1902 121.947 27.1902C123.907 27.1902 124.432 28.4602 124.432 28.4602H124.463C124.463 28.4602 124.443 28.3802 124.443 28.2502V27.9402C124.443 27.6302 124.675 27.3902 125.119 27.3902H125.675C126.12 27.3902 126.352 27.6302 126.352 28.0802V35.2102C126.352 38.0702 124.079 39.1402 121.998 39.1402C121.058 39.1402 120.119 38.9402 119.543 38.7002C119.118 38.5202 118.997 38.2402 119.179 37.8202L119.31 37.4402C119.512 37.0302 119.765 36.9102 120.21 37.0602ZM124.331 31.3602C124.331 29.4502 123.372 28.9402 122.291 28.9402C120.987 28.9402 120.28 29.8502 120.28 31.2302C120.28 32.7302 121.038 33.7902 122.392 33.7902C123.372 33.8002 124.331 33.2202 124.331 31.3602Z" fill="#F27321"/>
<path d="M132.211 27.1902C134.606 27.1902 135.939 28.8702 135.939 31.1602C135.939 31.5202 135.626 31.8602 135.212 31.8602H130.08C130.211 33.3602 131.332 34.1502 132.605 34.1502C133.383 34.1502 134.02 33.8602 134.424 33.6102C134.838 33.4102 135.131 33.4602 135.343 33.8402L135.545 34.1702C135.747 34.5502 135.676 34.8702 135.313 35.0802C134.767 35.4202 133.777 35.9102 132.464 35.9102C129.676 35.9102 127.948 33.9202 127.948 31.5502C127.938 28.9802 129.686 27.1902 132.211 27.1902ZM133.858 30.6002C133.828 29.4402 133.121 28.7602 132.161 28.7602C131.09 28.7602 130.332 29.4902 130.13 30.6002H133.858Z" fill="#F27321"/>
<path d="M27.9132 1.78027L1.9801 25.1603H6.62725L27.9132 5.97027L49.1991 25.1603H53.8463L27.9132 1.78027Z" fill="#F27321"/>
<path d="M27.6303 10.4802H24.8622V13.2202H27.6303V10.4802Z" fill="#F27321"/>
<path d="M30.9641 10.4802H28.196V13.2202H30.9641V10.4802Z" fill="#F27321"/>
<path d="M27.6303 13.8502H24.8622V16.5902H27.6303V13.8502Z" fill="#F27321"/>
<path d="M30.9641 13.8502H28.196V16.5902H30.9641V13.8502Z" fill="#F27321"/>
<path d="M40.3696 28.2903V28.2303C42.0264 27.3803 43.0366 25.7103 43.0366 23.6203C43.0366 20.1603 40.4302 18.1603 36.7832 18.1603H30.2267C29.5498 18.1603 29.2164 18.4903 29.2164 19.1603V20.9603V28.7403C29.2164 30.2403 28.8224 31.6903 28.1658 32.8903C28.0041 33.1903 27.8223 33.4803 27.6202 33.7503L25.7816 31.9003C25.3472 31.4703 24.8622 31.5303 24.4379 32.0203L24.0439 32.4103C23.6095 32.9003 23.6095 33.3803 24.1046 33.8003L25.9129 35.5903C24.6602 36.6203 22.9125 37.1703 21.195 37.1703C16.659 37.1703 13.2545 33.4703 13.2545 28.7403C13.2545 24.0403 16.659 20.5503 21.195 20.5503C24.2561 20.5503 26.8221 22.1203 28.1759 24.5703V20.0503C26.3069 18.6303 23.9126 17.7903 21.195 17.7903C14.8204 17.7903 10.1328 22.5503 10.1328 28.7403C10.1328 34.9903 14.7598 39.9303 21.195 39.9303C23.8318 39.9303 26.1958 39.1103 28.0647 37.6203L29.2467 38.7903L29.9034 39.4403C29.9438 39.4803 29.9842 39.5203 30.0246 39.5503C30.3681 39.8303 30.7217 39.8103 31.0652 39.5603C31.1359 39.5103 31.2066 39.4503 31.2773 39.3803L31.6713 38.9603C32.0956 38.4703 32.0653 37.9903 31.5804 37.5603L29.8024 35.8103C31.045 34.3203 31.9138 32.4403 32.227 30.3903C32.2674 30.1503 32.2876 29.9003 32.3179 29.6603C32.3381 29.3603 32.3583 29.0603 32.3583 28.7503C32.3583 28.2103 32.328 27.6903 32.2573 27.1703C32.2472 27.1203 32.2472 27.0803 32.2371 27.0303V20.7703H36.7428C38.7936 20.7703 39.9958 22.0503 39.9958 23.9303C39.9958 25.8103 38.7633 27.1803 36.8034 27.1803H33.318C33.3786 27.6903 33.4089 28.2203 33.4089 28.7603C33.4089 29.0603 33.3988 29.3703 33.3786 29.6703H37.1166C39.3896 29.6703 40.8545 31.1603 40.8545 33.3403C40.8545 35.5203 39.4401 36.9803 37.1166 36.9803H32.4694C32.8937 37.4203 33.0149 37.8803 33.0352 38.2003C33.0554 38.5403 32.9846 39.0503 32.5401 39.5903H36.9549C40.7838 39.5903 43.9458 37.5303 43.9458 33.4903C43.9256 31.0803 42.6426 28.9603 40.3696 28.2903Z" fill="#F27321"/>
<path d="M59.9078 7.51025H59.4835V36.9503H59.9078V7.51025Z" fill="#F27321"/>
</svg>
