<svg width="34" height="26" viewBox="0 0 34 26" fill="none" xmlns="http://www.w3.org/2000/svg">
<path d="M33.1105 6.3799C33.1105 3.45038 30.9557 1.09374 28.2931 1.09374C24.6865 0.924475 21.0084 0.859375 17.2521 0.859375C17.0567 0.859375 16.8614 0.859375 16.6661 0.859375C16.4708 0.859375 16.2755 0.859375 16.0802 0.859375C12.3304 0.859375 8.64576 0.924475 5.03919 1.09374C2.38309 1.09374 0.228258 3.4634 0.228258 6.39292C0.065507 8.7105 -0.00610365 11.0281 0.000406409 13.3457C-0.00610365 15.6632 0.065507 17.9808 0.221748 20.3049C0.221748 23.2344 2.37658 25.6106 5.03268 25.6106C8.82153 25.7864 12.708 25.8645 16.6596 25.858C20.6177 25.871 24.4912 25.7929 28.2866 25.6106C30.9492 25.6106 33.104 23.2344 33.104 20.3049C33.2603 17.9808 33.3319 15.6632 33.3254 13.3391C33.3384 11.0216 33.2668 8.70399 33.1105 6.3799ZM13.4762 19.732V6.93977L22.9158 13.3326L13.4762 19.732Z" fill="#606060"/>
</svg>
